HIERARCHY
ROOT joint_Root
{
	OFFSET 0.0 0.0 0.0
	CHANNELS 6 Xposition Yposition Zposition Zrotation Xrotation Yrotation 
	JOINT Hips
	{
		OFFSET -17.1583 93.1646 452.98
		CHANNELS 6 Xposition Yposition Zposition Zrotation Xrotation Yrotation 
		JOINT Spine
		{
			OFFSET 15.7357 0.0 0.0
			CHANNELS 6 Xposition Yposition Zposition Zrotation Xrotation Yrotation 
			JOINT Chest
			{
				OFFSET 8.98455 -0.406207 0.0
				CHANNELS 6 Xposition Yposition Zposition Zrotation Xrotation Yrotation 
				JOINT Neck
				{
					OFFSET 16.3773 0.0 0.0
					CHANNELS 6 Xposition Yposition Zposition Zrotation Xrotation Yrotation 
					JOINT Head
					{
						OFFSET 6.45672 0.0 0.0
						CHANNELS 6 Xposition Yposition Zposition Zrotation Xrotation Yrotation 
						End Site
						{
							OFFSET 0.0 0.0 0.0
						}
					}
				}
				JOINT Shoulder_L
				{
					OFFSET 12.9942 -0.242716 4.98039
					CHANNELS 6 Xposition Yposition Zposition Zrotation Xrotation Yrotation 
					JOINT UpperArm_L
					{
						OFFSET 5.34809 0.0 0.0
						CHANNELS 6 Xposition Yposition Zposition Zrotation Xrotation Yrotation 
						JOINT LowerArm_L
						{
							OFFSET 24.3286 1.87007e-05 0.0
							CHANNELS 6 Xposition Yposition Zposition Zrotation Xrotation Yrotation 
							JOINT Hand_L
							{
								OFFSET 22.2916 0.0 0.0
								CHANNELS 6 Xposition Yposition Zposition Zrotation Xrotation Yrotation 
								End Site
								{
									OFFSET 0.0 0.0 0.0
								}
							}
						}
					}
				}
				JOINT Shoulder_R
				{
					OFFSET 12.9945 -0.242716 -4.98039
					CHANNELS 6 Xposition Yposition Zposition Zrotation Xrotation Yrotation 
					JOINT UpperArm_R
					{
						OFFSET -5.34813 0.0 0.0
						CHANNELS 6 Xposition Yposition Zposition Zrotation Xrotation Yrotation 
						JOINT LowerArm_R
						{
							OFFSET -24.3289 0.000322201 0.0
							CHANNELS 6 Xposition Yposition Zposition Zrotation Xrotation Yrotation 
							JOINT Hand_R
							{
								OFFSET -22.2915 -0.000108084 0.0
								CHANNELS 6 Xposition Yposition Zposition Zrotation Xrotation Yrotation 
								End Site
								{
									OFFSET 0.0 0.0 0.0
								}
							}
						}
					}
				}
			}
		}
		JOINT UpperLeg_L
		{
			OFFSET -2.19248 -6.46944 0.0
			CHANNELS 6 Xposition Yposition Zposition Zrotation Xrotation Yrotation 
			JOINT LowerLeg_L
			{
				OFFSET 39.0811 0.0 -1.23785e-05
				CHANNELS 6 Xposition Yposition Zposition Zrotation Xrotation Yrotation 
				JOINT Foot_L
				{
					OFFSET 40.9854 0.0 -1.26872e-05
					CHANNELS 6 Xposition Yposition Zposition Zrotation Xrotation Yrotation 
					JOINT Toes_L
					{
						OFFSET 11.7543 0.0 0.0
						CHANNELS 6 Xposition Yposition Zposition Zrotation Xrotation Yrotation 
						End Site
						{
							OFFSET 0.0 0.0 0.0
						}
					}
				}
			}
		}
		JOINT UpperLeg_R
		{
			OFFSET -2.19251 6.46944 0.0
			CHANNELS 6 Xposition Yposition Zposition Zrotation Xrotation Yrotation 
			JOINT LowerLeg_R
			{
				OFFSET -39.0811 -0.00228153 -0.0401928
				CHANNELS 6 Xposition Yposition Zposition Zrotation Xrotation Yrotation 
				JOINT Foot_R
				{
					OFFSET -40.9854 0.0 0.0
					CHANNELS 6 Xposition Yposition Zposition Zrotation Xrotation Yrotation 
					JOINT Toes_R
					{
						OFFSET -11.7543 0.0 0.0
						CHANNELS 6 Xposition Yposition Zposition Zrotation Xrotation Yrotation 
						End Site
						{
							OFFSET 0.0 0.0 0.0
						}
					}
				}
			}
		}
	}
}
MOTION
Frames:	5
Frame Time:	0.0333333
0.000000 0.000000 0.000000 0.000000 0.000000 -0.000000 -2.876260 91.814000 -2.092400 83.837500 0.253594 7.801970 15.735700 0.000005 -0.000001 71.892300 86.344300 -70.046300 8.984550 -0.406207 -0.000000 -0.775195 -2.409460 3.674480 16.377300 -0.000001 -0.000001 10.378600 4.133310 4.909390 6.456720 -0.000001 -0.000000 -7.982990 3.900700 16.979900 12.994200 -0.242716 4.980390 -93.002100 8.300380 -70.034600 5.348090 -0.000007 -0.000001 -71.890500 26.689200 1.164470 24.328600 0.000019 0.000005 10.951500 27.094500 -23.018100 22.291600 -0.000001 0.000005 -2.208890 4.988050 7.572490 12.994500 -0.242716 -4.980390 86.775500 7.596990 -66.919000 -5.348130 -0.000001 -0.000004 -69.924200 -4.797460 -11.763900 -24.328900 0.000322 -0.000009 9.749070 -12.179800 -140.841000 -22.291500 -0.000108 -0.000004 44.722300 5.674120 -18.089900 -2.192480 -6.469440 -0.000000 -173.065000 6.765490 -1.921860 39.081100 -0.000007 -0.000012 0.400571 -0.697553 29.867700 40.985400 -0.000006 -0.000013 -0.482354 2.216410 -76.088900 11.754300 -0.000000 0.000003 0.000222 0.163792 -9.933680 -2.192510 6.469440 -0.000001 -170.541000 8.835560 -174.722000 -39.081100 -0.002282 -0.040193 0.147492 -0.458175 17.466600 -40.985400 0.000008 0.000006 5.484760 2.513800 -71.480300 -11.754300 -0.000006 -0.000006 -0.010353 0.273924 -5.443870
0.000000 0.000000 0.000000 0.000000 0.000000 -0.000000 -2.865730 91.813700 -2.068540 83.806300 0.224666 7.787480 15.735700 0.000005 -0.000001 72.246200 86.331000 -70.396100 8.984550 -0.406207 -0.000000 -0.736409 -2.374290 3.683650 16.377300 -0.000001 -0.000001 10.313200 4.066500 4.837730 6.456720 -0.000001 -0.000000 -7.852850 3.843240 16.741500 12.994200 -0.242716 4.980390 -93.020100 8.337330 -70.005900 5.348090 -0.000007 -0.000001 -71.914900 26.672300 1.199170 24.328600 0.000019 0.000005 10.930600 27.160300 -22.931600 22.291600 -0.000001 0.000005 -2.197960 4.992780 7.472700 12.994500 -0.242716 -4.980390 86.800400 7.549150 -66.950000 -5.348130 -0.000001 -0.000004 -69.987600 -4.829470 -11.794500 -24.328900 0.000322 -0.000009 9.814180 -12.208100 -140.715000 -22.291500 -0.000108 -0.000004 44.603400 5.674630 -18.188400 -2.192480 -6.469440 -0.000000 -173.042000 6.724720 -1.923940 39.081100 -0.000007 -0.000012 0.406866 -0.708132 29.881000 40.985400 -0.000006 -0.000013 -0.472957 2.211740 -76.111000 11.754300 -0.000000 0.000003 0.000298 0.162444 -9.988420 -2.192510 6.469440 -0.000001 -170.509000 8.744400 -174.698000 -39.081100 -0.002282 -0.040193 0.146609 -0.456440 17.428000 -40.985400 0.000008 0.000006 5.514350 2.527070 -71.497200 -11.754300 -0.000006 -0.000006 -0.010741 0.276760 -5.327800
0.000000 0.000000 0.000000 0.000000 0.000000 -0.000000 -2.850730 91.816100 -2.054510 83.793000 0.224378 7.762750 15.735700 0.000005 -0.000001 72.256400 86.310700 -70.405700 8.984550 -0.406207 -0.000000 -0.697101 -2.384830 3.685390 16.377300 -0.000001 -0.000001 10.307700 4.028080 4.726720 6.456720 -0.000001 -0.000000 -7.747470 3.801620 16.551500 12.994200 -0.242716 4.980390 -93.046500 8.407060 -69.997500 5.348090 -0.000007 -0.000001 -71.915500 26.726200 1.269460 24.328600 0.000019 0.000005 10.868800 27.043400 -22.894100 22.291600 -0.000001 0.000005 -2.176470 4.990620 7.518280 12.994500 -0.242716 -4.980390 86.816900 7.526460 -66.995400 -5.348130 -0.000001 -0.000004 -69.948300 -4.779480 -11.784400 -24.328900 0.000322 -0.000009 9.851450 -12.170000 -140.519000 -22.291500 -0.000108 -0.000004 44.582600 5.673740 -18.017200 -2.192480 -6.469440 -0.000000 -173.047000 6.748330 -1.926230 39.081100 -0.000007 -0.000012 0.407589 -0.709905 29.863100 40.985400 -0.000006 -0.000013 -0.463611 2.183990 -76.079400 11.754300 -0.000000 0.000003 0.000313 0.162185 -9.998930 -2.192510 6.469440 -0.000001 -170.511000 8.788110 -174.719000 -39.081100 -0.002282 -0.040193 0.145150 -0.452235 17.412000 -40.985400 0.000008 0.000006 5.464740 2.500390 -71.460900 -11.754300 -0.000006 -0.000006 -0.010929 0.278120 -5.272160
0.000000 0.000000 0.000000 0.000000 0.000000 -0.000000 -2.818180 91.820100 -2.049520 83.875400 0.225013 7.710850 15.735700 0.000005 -0.000001 72.601300 86.311600 -70.781500 8.984550 -0.406207 -0.000000 -0.686965 -2.339490 3.624190 16.377300 -0.000001 -0.000001 10.297800 3.983150 4.614830 6.456720 -0.000001 -0.000000 -7.671890 3.744430 16.332100 12.994200 -0.242716 4.980390 -93.035900 8.392400 -70.030000 5.348090 -0.000007 -0.000001 -71.992900 26.673000 1.295450 24.328600 0.000019 0.000005 10.851100 27.087900 -22.828800 22.291600 -0.000001 0.000005 -2.192640 4.990520 7.520430 12.994500 -0.242716 -4.980390 86.786900 7.585010 -66.960000 -5.348130 -0.000001 -0.000004 -69.862800 -4.832740 -11.748400 -24.328900 0.000322 -0.000009 9.792370 -11.998400 -140.298000 -22.291500 -0.000108 -0.000004 44.170400 5.672360 -17.767300 -2.192480 -6.469440 -0.000000 -173.134000 6.702980 -1.944630 39.081100 -0.000007 -0.000012 0.402179 -0.702291 29.799300 40.985400 -0.000006 -0.000013 -0.436008 2.208850 -76.057300 11.754300 -0.000000 0.000003 0.000339 0.161707 -10.018300 -2.192510 6.469440 -0.000001 -170.590000 8.737840 -174.756000 -39.081100 -0.002282 -0.040193 0.149878 -0.466820 17.429200 -40.985400 0.000008 0.000006 5.569680 2.505650 -71.571300 -11.754300 -0.000006 -0.000006 -0.011519 0.282326 -5.099970
0.000000 0.000000 0.000000 0.000000 0.000000 -0.000000 -2.795820 91.823600 -2.035330 83.863400 0.187347 7.680420 15.735700 0.000005 -0.000001 72.795100 86.279200 -70.958100 8.984550 -0.406207 -0.000000 -0.617123 -2.335030 3.660100 16.377300 -0.000001 -0.000001 10.264300 4.034280 4.468390 6.456720 -0.000001 -0.000000 -7.612670 3.840100 16.009700 12.994200 -0.242716 4.980390 -93.061800 8.453280 -70.005600 5.348090 -0.000007 -0.000001 -71.986000 26.705700 1.302170 24.328600 0.000019 0.000005 10.856300 27.057000 -22.860500 22.291600 -0.000001 0.000005 -2.242330 4.989850 7.534480 12.994500 -0.242716 -4.980390 86.804300 7.562730 -67.012000 -5.348130 -0.000001 -0.000004 -69.849400 -4.797200 -11.707100 -24.328900 0.000322 -0.000009 9.700370 -11.754600 -139.999000 -22.291500 -0.000108 -0.000004 43.663800 5.670960 -17.533200 -2.192480 -6.469440 -0.000000 -173.138000 6.642160 -1.951750 39.081100 -0.000007 -0.000012 0.405473 -0.708284 29.790900 40.985400 -0.000006 -0.000013 -0.413854 2.202920 -76.089300 11.754300 -0.000000 0.000003 0.000236 0.163553 -9.943380 -2.192510 6.469440 -0.000001 -170.602000 8.699920 -174.795000 -39.081100 -0.002282 -0.040193 0.147750 -0.459163 17.460600 -40.985400 0.000008 0.000006 5.419270 2.530090 -71.551200 -11.754300 -0.000006 -0.000006 -0.011163 0.279803 -5.203280
